HIERARCHY
ROOT root
{
  OFFSET 0 93.2929 0
  CHANNELS 6 Xposition Yposition Zposition Zrotation Xrotation Yrotation
  JOINT torso_1
  {
    OFFSET 0 5.07867 -1.15138
    CHANNELS 6 Xposition Yposition Zposition Zrotation Xrotation Yrotation
    JOINT torso_2
    {
      OFFSET 0 5.61661 1.07143
      CHANNELS 6 Xposition Yposition Zposition Zrotation Xrotation Yrotation
      JOINT torso_3
      {
        OFFSET -1.02604e-17 5.98978 0.11501
        CHANNELS 6 Xposition Yposition Zposition Zrotation Xrotation Yrotation
        JOINT torso_4
        {
          OFFSET -1.10457e-17 6.50583 -0.443523
          CHANNELS 6 Xposition Yposition Zposition Zrotation Xrotation Yrotation
          JOINT torso_5
          {
            OFFSET -1.97295e-17 7.60548 -1.50593
            CHANNELS 6 Xposition Yposition Zposition Zrotation Xrotation Yrotation
            JOINT torso_6
            {
              OFFSET -2.53307e-17 9.49737 -0.914492
              CHANNELS 6 Xposition Yposition Zposition Zrotation Xrotation Yrotation
              JOINT torso_7
              {
                OFFSET -2.90401e-17 10.5513 1.57691
                CHANNELS 6 Xposition Yposition Zposition Zrotation Xrotation Yrotation
                JOINT neck_1
                {
                  OFFSET -1.29193e-17 4.78644 0.715339
                  CHANNELS 6 Xposition Yposition Zposition Zrotation Xrotation Yrotation
                  JOINT neck_2
                  {
                    OFFSET -1.8116e-17 4.82109 0.421791
                    CHANNELS 6 Xposition Yposition Zposition Zrotation Xrotation Yrotation
                    JOINT head
                    {
                      OFFSET -2.00958e-17 4.83041 0.765062
                      CHANNELS 6 Xposition Yposition Zposition Zrotation Xrotation Yrotation
                      End Site
                      {
                        OFFSET 0 0.1 0
                      }
                    }
                  }
                }
                JOINT l_shoulder
                {
                  OFFSET 1.23299 -7.60731 7.53374
                  CHANNELS 6 Xposition Yposition Zposition Zrotation Xrotation Yrotation
                  JOINT l_up_arm
                  {
                    OFFSET 12.9547 3.2495 -3.26872
                    CHANNELS 6 Xposition Yposition Zposition Zrotation Xrotation Yrotation
                    JOINT l_low_arm
                    {
                      OFFSET 29.2081 0.0598081 0.137039
                      CHANNELS 6 Xposition Yposition Zposition Zrotation Xrotation Yrotation
                      JOINT l_hand
                      {
                        OFFSET 24.234 0.0496219 0.113701
                        CHANNELS 6 Xposition Yposition Zposition Zrotation Xrotation Yrotation
                        End Site
                        {
                          OFFSET 0.1 0 0
                        }
                      }
                    }
                  }
                }
                JOINT r_shoulder
                {
                  OFFSET -1.23299 -7.60729 7.53365
                  CHANNELS 6 Xposition Yposition Zposition Zrotation Xrotation Yrotation
                  JOINT r_up_arm
                  {
                    OFFSET -12.9547 3.2495 -3.26872
                    CHANNELS 6 Xposition Yposition Zposition Zrotation Xrotation Yrotation
                    JOINT r_low_arm
                    {
                      OFFSET -29.2081 0.0598081 0.137039
                      CHANNELS 6 Xposition Yposition Zposition Zrotation Xrotation Yrotation
                      JOINT r_hand
                      {
                        OFFSET -24.234 0.0496218 0.113702
                        CHANNELS 6 Xposition Yposition Zposition Zrotation Xrotation Yrotation
                        End Site
                        {
                          OFFSET -0.1 0 0
                        }
                      }
                    }
                  }
                }
              }
            }
          }
        }
      }
    }
  }
  JOINT l_up_leg
  {
    OFFSET 9.23673 -4.20556 2.0327
    CHANNELS 6 Xposition Yposition Zposition Zrotation Xrotation Yrotation
    JOINT l_low_leg
    {
      OFFSET -0.852353 -38.7721 -0.655187
      CHANNELS 6 Xposition Yposition Zposition Zrotation Xrotation Yrotation
      JOINT l_foot
      {
        OFFSET -2.32622 -40.4017 -6.04875
        CHANNELS 6 Xposition Yposition Zposition Zrotation Xrotation Yrotation
        JOINT l_toes
        {
          OFFSET 0.779096 -9.8844 12.4959
          CHANNELS 6 Xposition Yposition Zposition Zrotation Xrotation Yrotation
          End Site
          {
            OFFSET 0 0 0.1
          }
        }
      }
    }
  }
  JOINT r_up_leg
  {
    OFFSET -9.23673 -4.20556 2.0327
    CHANNELS 6 Xposition Yposition Zposition Zrotation Xrotation Yrotation
    JOINT r_low_leg
    {
      OFFSET 0.852353 -38.7721 -0.655187
      CHANNELS 6 Xposition Yposition Zposition Zrotation Xrotation Yrotation
      JOINT r_foot
      {
        OFFSET 2.32622 -40.4017 -6.04875
        CHANNELS 6 Xposition Yposition Zposition Zrotation Xrotation Yrotation
        JOINT r_toes
        {
          OFFSET -0.779096 -9.8844 12.4959
          CHANNELS 6 Xposition Yposition Zposition Zrotation Xrotation Yrotation
          End Site
          {
            OFFSET 0 0 0.1
          }
        }
      }
    }
  }
}
MOTION
Frames: 4
Frame Time: 0.016667
-0.859649 91.7748 64.2772 -8.5018 -8.44051 -89.927 0 5.07867 -1.15138 -3.6552 1.48745 -0.399592 0 5.61661 1.07143 -2.79297 1.68736 -0.975755 -1.02604e-17 5.98978 0.11501 -2.05375 2.25585 -0.945775 -1.10457e-17 6.50583 -0.443523 -1.31762 2.76649 -0.930392 -1.97295e-17 7.60548 -1.50593 -0.766377 2.61534 -0.828887 -2.53307e-17 9.49737 -0.914492 -0.2162 2.80776 -1.09822 -2.90401e-17 10.5513 1.57691 -0.136053 0.751878 -0.0783317 -1.29193e-17 4.78644 0.715339 -0.693391 -10.0103 -4.3225 -1.8116e-17 4.82109 0.421791 0.906886 -3.30629 -2.16751 -2.00958e-17 4.83041 0.765062 4.07429 0.848596 0.572215 1.23299 -7.60731 7.53374 -9.60873 7.46037 -8.13442 12.9547 3.2495 -3.26872 -70.196 14.9402 -14.6554 29.2081 0.0598081 0.137039 0.912493 -0.0304032 -4.40236 24.234 0.0496219 0.113701 -0.154441 -20.661 -1.32076 -1.23299 -7.60729 7.53365 3.65667 4.68758 4.66315 -12.9547 3.2495 -3.26872 79.3005 22.6312 4.94806 -29.2081 0.0598081 0.137039 -1.82589 -0.131426 8.83113 -24.234 0.0496218 0.113702 3.9955 -30.9812 7.21722 9.23673 -4.20556 2.0327 -9.94755 3.42564 -24.4664 -0.852353 -38.7721 -0.655187 -0.79603 2.973 -0.0312443 -2.32622 -40.4017 -6.04875 -3.87746 1.08412 15.6128 0.779096 -9.8844 12.4959 -9.41549e-16 -8.37189e-16 5.44745e-17 -9.23673 -4.20556 2.0327 -10.844 -3.31126 13.1222 0.852353 -38.7721 -0.655187 2.70712 10.0557 -0.0622116 2.32622 -40.4017 -6.04875 -1.07926 -6.677 -15.3064 -0.779096 -9.8844 12.4959 -4.25096e-16 -5.70359e-16 -1.27459e-14 
-0.854377 91.7695 64.2744 -8.41892 -8.42902 -89.9399 0 5.07867 -1.15138 -3.64494 1.45681 -0.37644 0 5.61661 1.07143 -2.79093 1.66554 -0.950813 -1.02604e-17 5.98978 0.11501 -2.05659 2.24195 -0.922358 -1.10457e-17 6.50583 -0.443523 -1.32568 2.76598 -0.908111 -1.97295e-17 7.60548 -1.50593 -0.774601 2.62725 -0.804821 -2.53307e-17 9.49737 -0.914492 -0.22248 2.82766 -1.0686 -2.90401e-17 10.5513 1.57691 -0.136527 0.751167 -0.076863 -1.29193e-17 4.78644 0.715339 -0.724994 -10.1234 -4.35703 -1.8116e-17 4.82109 0.421791 0.899241 -3.34232 -2.18437 -2.00958e-17 4.83041 0.765062 4.1237 0.804691 0.549348 1.23299 -7.60731 7.53374 -9.77728 7.47415 -8.11881 12.9547 3.2495 -3.26872 -70.2029 14.6306 -14.5295 29.2081 0.0598081 0.137039 0.939359 -0.0323622 -4.53221 24.234 0.0496219 0.113701 -0.0864243 -20.2625 -1.3913 -1.23299 -7.60729 7.53365 3.68816 4.69123 4.60935 -12.9547 3.2495 -3.26872 79.3347 22.6038 4.91615 -29.2081 0.0598081 0.137039 -1.84893 -0.134906 8.94337 -24.234 0.0496218 0.113702 3.97016 -31.0699 7.18236 9.23673 -4.20556 2.0327 -9.91976 3.32361 -24.396 -0.852353 -38.7721 -0.655187 -0.811069 3.02916 -0.0314372 -2.32622 -40.4017 -6.04875 -3.88362 1.01012 15.617 0.779096 -9.8844 12.4959 -1.37582e-15 -8.57832e-16 7.51177e-17 -9.23673 -4.20556 2.0327 -10.8338 -3.49766 13.1666 0.852353 -38.7721 -0.655187 2.74535 10.1955 -0.0664908 2.32622 -40.4017 -6.04875 -1.05874 -6.68938 -15.3105 -0.779096 -9.8844 12.4959 3.88394e-16 -6.08205e-16 -1.27838e-14 
-0.842894 91.7746 64.2661 -8.38647 -8.42324 -89.9789 0 5.07867 -1.15138 -3.63681 1.42645 -0.350761 0 5.61661 1.07143 -2.79006 1.64951 -0.924338 -1.02604e-17 5.98978 0.11501 -2.06077 2.2421 -0.898034 -1.10457e-17 6.50583 -0.443523 -1.33503 2.79222 -0.885458 -1.97295e-17 7.60548 -1.50593 -0.784536 2.67072 -0.780381 -2.53307e-17 9.49737 -0.914492 -0.230068 2.88579 -1.03777 -2.90401e-17 10.5513 1.57691 -0.136917 0.747131 -0.0768945 -1.29193e-17 4.78644 0.715339 -0.74869 -10.3037 -4.35884 -1.8116e-17 4.82109 0.421791 0.899349 -3.37678 -2.18545 -2.00958e-17 4.83041 0.765062 4.16572 0.76202 0.502742 1.23299 -7.60731 7.53374 -10.039 7.52998 -8.17074 12.9547 3.2495 -3.26872 -70.0872 14.2371 -14.4769 29.2081 0.0598081 0.137039 0.956446 -0.0336399 -4.6148 24.234 0.0496219 0.113701 -0.0122308 -19.8904 -1.51397 -1.23299 -7.60729 7.53365 3.71638 4.68584 4.56439 -12.9547 3.2495 -3.26872 79.3371 22.6237 4.97497 -29.2081 0.0598081 0.137039 -1.86238 -0.136961 9.00897 -24.234 0.0496218 0.113702 3.94852 -31.1924 7.18217 9.23673 -4.20556 2.0327 -9.89527 3.25392 -24.3132 -0.852353 -38.7721 -0.655187 -0.828292 3.09348 -0.0316399 -2.32622 -40.4017 -6.04875 -3.93486 0.985777 15.6281 0.779096 -9.8844 12.4959 -2.19814e-16 -8.03358e-16 2.06432e-17 -9.23673 -4.20556 2.0327 -10.823 -3.64393 13.2387 0.852353 -38.7721 -0.655187 2.78162 10.328 -0.0706387 2.32622 -40.4017 -6.04875 -1.04148 -6.64913 -15.313 -0.779096 -9.8844 12.4959 -3.51692e-16 -5.79725e-16 -1.27553e-14 
-0.820662 91.7951 64.2554 -8.42479 -8.41901 -90.015 0 5.07867 -1.15138 -3.61432 1.40917 -0.323301 0 5.61661 1.07143 -2.77781 1.64594 -0.893482 -1.02604e-17 5.98978 0.11501 -2.05662 2.25652 -0.868828 -1.10457e-17 6.50583 -0.443523 -1.3388 2.83611 -0.85765 -1.97295e-17 7.60548 -1.50593 -0.790848 2.73194 -0.751437 -2.53307e-17 9.49737 -0.914492 -0.234884 2.96058 -1.00219 -2.90401e-17 10.5513 1.57691 -0.136642 0.742729 -0.0767722 -1.29193e-17 4.78644 0.715339 -0.77072 -10.3888 -4.38131 -1.8116e-17 4.82109 0.421791 0.899807 -3.44957 -2.19653 -2.00958e-17 4.83041 0.765062 4.1675 0.648753 0.463899 1.23299 -7.60731 7.53374 -10.2341 7.53976 -8.20041 12.9547 3.2495 -3.26872 -69.9426 13.9959 -14.5158 29.2081 0.0598081 0.137039 0.971846 -0.0348128 -4.68925 24.234 0.0496219 0.113701 -0.0223169 -19.6185 -1.59613 -1.23299 -7.60729 7.53365 3.72333 4.65279 4.50659 -12.9547 3.2495 -3.26872 79.3157 22.6671 5.0765 -29.2081 0.0598081 0.137039 -1.87223 -0.138473 9.05695 -24.234 0.0496218 0.113702 3.90546 -31.3533 7.15189 9.23673 -4.20556 2.0327 -9.87689 3.22651 -24.2348 -0.852353 -38.7721 -0.655187 -0.852001 3.18201 -0.0318873 -2.32622 -40.4017 -6.04875 -3.98761 1.04818 15.6402 0.779096 -9.8844 12.4959 4.40768e-16 -7.75642e-16 -7.07222e-18 -9.23673 -4.20556 2.0327 -10.8123 -3.73368 13.2987 0.852353 -38.7721 -0.655187 2.81981 10.4675 -0.0750956 2.32622 -40.4017 -6.04875 -1.00783 -6.52953 -15.3141 -0.779096 -9.8844 12.4959 -1.20188e-15 -5.40159e-16 -1.27157e-14 
